<svg xmlns="http://www.w3.org/2000/svg" width="118" height="50" viewBox="0 0 118 50"><g><g><path fill="#cffd00" d="M0 0h105v37H0z"/></g><g><path d="M13 13h105v37H13z"/></g><g><path fill="#fff" d="M42.823 31.672l-2.024-2.793c1.887-1.376 4.958-2.244 7.685-2.244 4.406 0 7.346 1.82 7.346 4.633v6.328H52.5l-1.517-2.114c-.728 1.46-2.858 2.433-5.307 2.433-2.64 0-4.421-1.207-4.421-3.092 0-2.05 2.448-3.236 5.97-3.236 1.116 0 2.23.099 3.328.294 0-.952-1.012-1.586-2.944-1.586a8.835 8.835 0 0 0-4.766 1.357zm-12.648 3.301h-.025l-1.887 2.623H25V23.354h5.347v6.263c.643-1.695 2.53-2.812 4.68-2.812 3.374 0 5.605 2.199 5.605 5.485 0 3.386-2.23 5.63-5.605 5.63-2.236-.025-4.189-1.212-4.831-2.967zm4.958-2.598c0-1-1.012-1.7-2.555-1.7-1.543 0-2.575.68-2.575 1.7s1.012 1.72 2.575 1.72c1.564 0 2.575-.7 2.575-1.76zm12.648 2.778c1.416 0 2.448-.65 2.58-1.623-.678-.15-1.37-.234-2.064-.252-1.138 0-1.973.297-1.973 1.031 0 .467.556.824 1.457.824zm23.479-11.8h5.347v7.77l3.01-4.106h5.904l-3.885 5.06 3.996 5.51h-5.934l-3.07-4.702v4.701H71.26zm14.944.205c0-1.496 1.194-2.558 2.889-2.558 1.695 0 2.888 1.057 2.888 2.558s-1.224 2.603-2.878 2.603c-1.654 0-2.899-1.052-2.899-2.598zm.218 3.431h5.347v10.582h-5.347zm8.691 6.483V30.48h-2.21v-3.49h2.21V24.35l5.347-.997v3.66h4.812v3.49h-4.812v1.906c-.023.394.125.78.408 1.059.284.28.675.425 1.075.402a2.289 2.289 0 0 0 1.952-1.077L106 35.71c-1.012 1.252-3.035 2.12-5.433 2.12-3.299-.016-5.454-1.756-5.454-4.359zm-26.788-.145l1.999 2.793C68.948 37.237 66.54 38 64.309 38c-4.422 0-7.366-2.244-7.366-5.63 0-3.47 2.944-5.8 7.366-5.8 2.256 0 4.68.848 6.1 2.12l-2.084 2.707a5.996 5.996 0 0 0-3.096-.932c-1.629 0-2.726.723-2.726 1.8s1.097 1.8 2.726 1.8a6.418 6.418 0 0 0 3.096-.738z"/></g></g></svg>
